<?xml version="1.0" encoding="utf-8"?>
<!-- Generator: Adobe Illustrator 18.0.0, SVG Export Plug-In . SVG Version: 6.00 Build 0)  -->
<!DOCTYPE svg PUBLIC "-//W3C//DTD SVG 1.1//EN" "http://www.w3.org/Graphics/SVG/1.1/DTD/svg11.dtd">
<svg version="1.1" id="Layer_1" xmlns="http://www.w3.org/2000/svg" xmlns:xlink="http://www.w3.org/1999/xlink" x="0px" y="0px"
	 viewBox="0 0 300 300" enable-background="new 0 0 300 300" xml:space="preserve">
<g>
	<path fill="#E91D25" d="M281,274.2H17.6c-6.6,0-12-5.4-12-12v-66.6c0-6.6,5.4-12,12-12H281c6.6,0,12,5.4,12,12v66.6
		C293,268.8,287.6,274.2,281,274.2z"/>
	<path fill="#FFFFFF" stroke="#E91D25" stroke-miterlimit="10" d="M225.2,258.2H31.7c-6.6,0-12-5.4-12-12v-32.3c0-6.6,5.4-12,12-12
		h193.4c6.6,0,12,5.4,12,12v32.3C237.2,252.8,231.8,258.2,225.2,258.2z"/>
</g>
<g>
	<path fill="#E91D25" d="M157.3,169.5c-39.4,0-71.4-32-71.4-71.4s32-71.4,71.4-71.4s71.4,32,71.4,71.4S196.7,169.5,157.3,169.5z
		 M157.3,61.6c-20.1,0-36.5,16.4-36.5,36.5s16.4,36.5,36.5,36.5s36.5-16.4,36.5-36.5S177.4,61.6,157.3,61.6z"/>
	<polygon fill="#E91D25" points="98.6,139 157.3,215 215.8,139 	"/>
</g>
</svg>
