<?xml version="1.0" encoding="utf-8"?>
<!-- Generator: Adobe Illustrator 18.0.0, SVG Export Plug-In . SVG Version: 6.00 Build 0)  -->
<!DOCTYPE svg PUBLIC "-//W3C//DTD SVG 1.1//EN" "http://www.w3.org/Graphics/SVG/1.1/DTD/svg11.dtd">
<svg version="1.1" id="Layer_1" xmlns="http://www.w3.org/2000/svg" xmlns:xlink="http://www.w3.org/1999/xlink" x="0px" y="0px"
	 viewBox="0 0 300 300" enable-background="new 0 0 300 300" xml:space="preserve">
<g>
	<path fill="#EA1D25" d="M77.4,168.2L64.1,68.6h30.2L87,20.3l-29,0.6L55,5.9h45.3l10.9,62.8h94.8c0,0-7.2,65.2-9.7,89.3
		C148.6,139.9,111.2,148.9,77.4,168.2z"/>
	<g>
		<path fill="#EA1D25" d="M58.1,203.8c23.5-61.6,163.6-68.2,184.7,0.6C142.6,205,58.1,203.8,58.1,203.8z"/>
		<path fill="#EA1D25" d="M58.7,245.5c24.7,76.1,178.7,56.7,184.1,1.2c-85.7-1.2-124.3,0-124.3,0l-18.1,18.1l-18.4-18.4L58.7,245.5z
			"/>
		<path fill="#EA1D25" d="M54.4,240.7c-17.5,0-19.9-30.8,1.8-30.8l16.3,11.5l-5.4-11.5h15.1l12.1,10.3l-3.6-11.5h14.5l13.3,12.7
			l-7.2-13.3l14.5,0.6l13.9,12.7l-6-12.7H151l11.5,13.3l-6-12.1h16.9l21.7,21.7l25.4-21.7l23.5-1.2c21.1,0,16.3,33.8,2.4,33.8
			S54.4,240.7,54.4,240.7z"/>
	</g>
</g>
</svg>
