<?xml version="1.0" encoding="utf-8"?>
<!-- Generator: Adobe Illustrator 18.0.0, SVG Export Plug-In . SVG Version: 6.00 Build 0)  -->
<!DOCTYPE svg PUBLIC "-//W3C//DTD SVG 1.1//EN" "http://www.w3.org/Graphics/SVG/1.1/DTD/svg11.dtd">
<svg version="1.1" id="Layer_1" xmlns="http://www.w3.org/2000/svg" xmlns:xlink="http://www.w3.org/1999/xlink" x="0px" y="0px"
	 viewBox="0 0 300 300" enable-background="new 0 0 300 300" xml:space="preserve">
<g>
	<path fill="#EA1D25" d="M106.7,200.7c0-20.5,11.9-40.6,19.8-40.6s-16.2,0.3-16.2,0.3v-14.5h90.4v14.2c0,0,1.3,0-7.9,0
		c-5.9,24.4,11.6,29.7,9.6,29.7c9.2,0,10.9,0.3,27.4,0.3c7.9-19.1,16.7-19.1,21.1-23.1l-7.6-47.9l-18.5-0.3l-0.7-5.6h28.7l4,9.6
		l14.9,1.3l3,14.9l-11.6,3.6l5.9,20.1c0,0,23.1-1.3,27.7,15.2c0.3,1-6.3,1.3-6.3,1.3c-0.3,1.1-34.8-25.1-51.5,21.1
		C199.4,201,106.7,200.7,106.7,200.7z"/>
	<circle fill="#EA1D25" cx="271" cy="203.6" r="24.4"/>
	<path fill="#EA1D25" d="M125.5,208.2c0,21.5,50.2,24.1,50.2,0C175.7,208.2,126.5,208.2,125.5,208.2z"/>
	<rect x="110.6" y="69.6" fill="#EA1D25" width="89.4" height="70.6"/>
	<rect x="28.4" y="168.3" fill="#EA1D25" width="40.3" height="9.9"/>
	<rect x="5.7" y="195.4" fill="#EA1D25" width="63.4" height="9.2"/>
	<circle fill="#EA1D25" cx="7.2" cy="200" r="4.8"/>
	<circle fill="#EA1D25" cx="67.6" cy="200" r="4.8"/>
	<circle fill="#EA1D25" cx="68.9" cy="173.1" r="4.8"/>
	<circle fill="#EA1D25" cx="28.8" cy="172.9" r="4.8"/>
</g>
</svg>
